<mxfile host="app.diagrams.net" modified="2022-09-03T02:37:16.742Z" agent="5.0 (Windows NT 10.0; Win64; x64) AppleWebKit/537.36 (KHTML, like Gecko) Chrome/104.0.0.0 Safari/537.36" etag="fywaGHXoj4oFeKnrI5zi" version="20.2.8" type="github">
  <diagram name="Page-1" id="97916047-d0de-89f5-080d-49f4d83e522f">
    <mxGraphModel dx="1662" dy="754" grid="1" gridSize="10" guides="1" tooltips="1" connect="1" arrows="1" fold="1" page="1" pageScale="1.5" pageWidth="1169" pageHeight="827" background="none" math="0" shadow="0">
      <root>
        <mxCell id="0" />
        <mxCell id="1" parent="0" />
        <mxCell id="b14wwS_qmOMuhVWsF1MZ-58" value="" style="edgeStyle=orthogonalEdgeStyle;rounded=0;orthogonalLoop=1;jettySize=auto;html=1;" edge="1" parent="1" source="b14wwS_qmOMuhVWsF1MZ-55" target="b14wwS_qmOMuhVWsF1MZ-57">
          <mxGeometry relative="1" as="geometry" />
        </mxCell>
        <mxCell id="b14wwS_qmOMuhVWsF1MZ-55" value="注文" style="whiteSpace=wrap;html=1;" vertex="1" parent="1">
          <mxGeometry x="640" y="280" width="120" height="60" as="geometry" />
        </mxCell>
        <mxCell id="b14wwS_qmOMuhVWsF1MZ-57" value="Order: +1&lt;br&gt;Delivery: + N&lt;br&gt;OrderItem: ＋N" style="whiteSpace=wrap;html=1;" vertex="1" parent="1">
          <mxGeometry x="870" y="280" width="120" height="60" as="geometry" />
        </mxCell>
        <mxCell id="b14wwS_qmOMuhVWsF1MZ-71" value="" style="edgeStyle=orthogonalEdgeStyle;rounded=0;orthogonalLoop=1;jettySize=auto;html=1;" edge="1" parent="1" source="b14wwS_qmOMuhVWsF1MZ-67" target="b14wwS_qmOMuhVWsF1MZ-70">
          <mxGeometry relative="1" as="geometry" />
        </mxCell>
        <mxCell id="b14wwS_qmOMuhVWsF1MZ-73" value="" style="edgeStyle=orthogonalEdgeStyle;rounded=0;orthogonalLoop=1;jettySize=auto;html=1;" edge="1" parent="1" source="b14wwS_qmOMuhVWsF1MZ-67" target="b14wwS_qmOMuhVWsF1MZ-72">
          <mxGeometry relative="1" as="geometry" />
        </mxCell>
        <mxCell id="b14wwS_qmOMuhVWsF1MZ-67" value="発注(入庫依頼)" style="whiteSpace=wrap;html=1;" vertex="1" parent="1">
          <mxGeometry x="160" y="280" width="120" height="60" as="geometry" />
        </mxCell>
        <mxCell id="b14wwS_qmOMuhVWsF1MZ-68" value="不定期" style="text;html=1;align=center;verticalAlign=middle;resizable=0;points=[];autosize=1;strokeColor=none;fillColor=none;" vertex="1" parent="1">
          <mxGeometry x="640" y="250" width="60" height="30" as="geometry" />
        </mxCell>
        <mxCell id="b14wwS_qmOMuhVWsF1MZ-69" value="定期" style="text;html=1;align=center;verticalAlign=middle;resizable=0;points=[];autosize=1;strokeColor=none;fillColor=none;rotation=0;" vertex="1" parent="1">
          <mxGeometry x="160" y="250" width="50" height="30" as="geometry" />
        </mxCell>
        <mxCell id="b14wwS_qmOMuhVWsF1MZ-70" value="PurchaseOrder: +1&lt;br&gt;PurchaseOrderItems: +N" style="whiteSpace=wrap;html=1;" vertex="1" parent="1">
          <mxGeometry x="360" y="280" width="160" height="60" as="geometry" />
        </mxCell>
        <mxCell id="b14wwS_qmOMuhVWsF1MZ-78" value="" style="edgeStyle=orthogonalEdgeStyle;rounded=0;orthogonalLoop=1;jettySize=auto;html=1;" edge="1" parent="1" source="b14wwS_qmOMuhVWsF1MZ-72" target="b14wwS_qmOMuhVWsF1MZ-77">
          <mxGeometry relative="1" as="geometry" />
        </mxCell>
        <mxCell id="b14wwS_qmOMuhVWsF1MZ-80" value="" style="edgeStyle=orthogonalEdgeStyle;rounded=0;orthogonalLoop=1;jettySize=auto;html=1;" edge="1" parent="1" source="b14wwS_qmOMuhVWsF1MZ-72" target="b14wwS_qmOMuhVWsF1MZ-79">
          <mxGeometry relative="1" as="geometry" />
        </mxCell>
        <mxCell id="b14wwS_qmOMuhVWsF1MZ-72" value="入庫完了判定" style="whiteSpace=wrap;html=1;" vertex="1" parent="1">
          <mxGeometry x="160" y="440" width="120" height="60" as="geometry" />
        </mxCell>
        <mxCell id="b14wwS_qmOMuhVWsF1MZ-77" value="Openlogi在庫: +N" style="whiteSpace=wrap;html=1;" vertex="1" parent="1">
          <mxGeometry x="360" y="440" width="160" height="60" as="geometry" />
        </mxCell>
        <mxCell id="b14wwS_qmOMuhVWsF1MZ-82" value="" style="edgeStyle=orthogonalEdgeStyle;rounded=0;orthogonalLoop=1;jettySize=auto;html=1;" edge="1" parent="1" source="b14wwS_qmOMuhVWsF1MZ-79" target="b14wwS_qmOMuhVWsF1MZ-81">
          <mxGeometry relative="1" as="geometry" />
        </mxCell>
        <mxCell id="b14wwS_qmOMuhVWsF1MZ-79" value="出庫判定(在庫取得)" style="whiteSpace=wrap;html=1;" vertex="1" parent="1">
          <mxGeometry x="160" y="580" width="120" height="60" as="geometry" />
        </mxCell>
        <mxCell id="b14wwS_qmOMuhVWsF1MZ-84" value="" style="edgeStyle=orthogonalEdgeStyle;rounded=0;orthogonalLoop=1;jettySize=auto;html=1;" edge="1" parent="1" source="b14wwS_qmOMuhVWsF1MZ-81" target="b14wwS_qmOMuhVWsF1MZ-83">
          <mxGeometry relative="1" as="geometry" />
        </mxCell>
        <mxCell id="b14wwS_qmOMuhVWsF1MZ-86" value="" style="edgeStyle=orthogonalEdgeStyle;rounded=0;orthogonalLoop=1;jettySize=auto;html=1;" edge="1" parent="1" source="b14wwS_qmOMuhVWsF1MZ-81" target="b14wwS_qmOMuhVWsF1MZ-85">
          <mxGeometry relative="1" as="geometry" />
        </mxCell>
        <mxCell id="b14wwS_qmOMuhVWsF1MZ-81" value="出庫依頼" style="whiteSpace=wrap;html=1;" vertex="1" parent="1">
          <mxGeometry x="160" y="720" width="120" height="60" as="geometry" />
        </mxCell>
        <mxCell id="b14wwS_qmOMuhVWsF1MZ-83" value="ShippingRequest: +N&lt;br&gt;Openlogi在庫: - N" style="whiteSpace=wrap;html=1;" vertex="1" parent="1">
          <mxGeometry x="360" y="720" width="160" height="60" as="geometry" />
        </mxCell>
        <mxCell id="b14wwS_qmOMuhVWsF1MZ-85" value="出庫完了判定" style="whiteSpace=wrap;html=1;" vertex="1" parent="1">
          <mxGeometry x="160" y="860" width="120" height="60" as="geometry" />
        </mxCell>
        <mxCell id="b14wwS_qmOMuhVWsF1MZ-107" value="" style="edgeStyle=orthogonalEdgeStyle;rounded=0;orthogonalLoop=1;jettySize=auto;html=1;" edge="1" parent="1" source="b14wwS_qmOMuhVWsF1MZ-87" target="b14wwS_qmOMuhVWsF1MZ-106">
          <mxGeometry relative="1" as="geometry" />
        </mxCell>
        <mxCell id="b14wwS_qmOMuhVWsF1MZ-87" value="入庫依頼キャンセル" style="whiteSpace=wrap;html=1;" vertex="1" parent="1">
          <mxGeometry x="640" y="440" width="120" height="60" as="geometry" />
        </mxCell>
        <mxCell id="b14wwS_qmOMuhVWsF1MZ-88" value="出庫依頼キャンセル" style="whiteSpace=wrap;html=1;" vertex="1" parent="1">
          <mxGeometry x="640" y="520" width="120" height="60" as="geometry" />
        </mxCell>
        <mxCell id="b14wwS_qmOMuhVWsF1MZ-105" value="" style="edgeStyle=orthogonalEdgeStyle;rounded=0;orthogonalLoop=1;jettySize=auto;html=1;" edge="1" parent="1" source="b14wwS_qmOMuhVWsF1MZ-92" target="b14wwS_qmOMuhVWsF1MZ-104">
          <mxGeometry relative="1" as="geometry" />
        </mxCell>
        <mxCell id="b14wwS_qmOMuhVWsF1MZ-92" value="注文キャンセル&lt;br&gt;" style="whiteSpace=wrap;html=1;" vertex="1" parent="1">
          <mxGeometry x="640" y="360" width="120" height="60" as="geometry" />
        </mxCell>
        <mxCell id="b14wwS_qmOMuhVWsF1MZ-104" value="入庫変更&lt;br&gt;入庫キャンセル&lt;br&gt;出庫キャンセル" style="whiteSpace=wrap;html=1;" vertex="1" parent="1">
          <mxGeometry x="870" y="360" width="120" height="60" as="geometry" />
        </mxCell>
        <mxCell id="b14wwS_qmOMuhVWsF1MZ-106" value="出庫キャンセル" style="whiteSpace=wrap;html=1;" vertex="1" parent="1">
          <mxGeometry x="840" y="440" width="150" height="60" as="geometry" />
        </mxCell>
      </root>
    </mxGraphModel>
  </diagram>
</mxfile>
